<svg xmlns="http://www.w3.org/2000/svg" width="1000" height="1000"><path d="M500 300c-74.842 0-140.084 41.1-174.375 101.969C254.374 413.61 200 475.456 200 550c0 82.843 67.157 150 150 150h325c69.036 0 125-55.964 125-125 0-62.553-45.952-114.382-105.937-123.562C672.358 364.456 593.703 300 500 300m0 50c66.861 0 123.477 43.757 142.844 104.188-20.19 5.358-38.377 15.627-53.188 29.468l35.407 35.406C638.325 507.215 655.816 500 675 500c41.421 0 75 33.579 75 75s-33.579 75-75 75H350c-55.228 0-100-44.772-100-100s44.772-100 100-100c2.834 0 5.632.113 8.406.344C378.9 391.904 434.56 350 500 350" style="fill:#000;fill-opacity:1;stroke:none"/></svg>