<svg xmlns="http://www.w3.org/2000/svg" width="1000" height="1000"><path d="M500 200c-74.842 0-140.084 41.1-174.375 101.969C254.374 313.61 200 375.456 200 450c0 81.17 64.472 147.269 145 149.906v-50.031c-52.91-2.6-95-46.32-95-99.875 0-55.228 44.772-100 100-100 2.834 0 5.632.113 8.406.344C378.9 291.904 434.56 250 500 250c66.861 0 123.477 43.757 142.844 104.188-20.19 5.358-38.377 15.627-53.188 29.468l35.407 35.406C638.325 407.215 655.816 400 675 400c41.421 0 75 33.579 75 75s-33.579 75-75 75h-20v50h20c69.036 0 125-55.964 125-125 0-62.553-45.952-114.382-105.937-123.562C672.358 264.456 593.703 200 500 200m147.5 520.063C607.234 721.379 575 754.413 575 795c0 1.68.079 3.348.188 5h25.062a51 51 0 0 1-.25-5c0-26.772 21.052-48.63 47.5-49.937z" style="fill:#000;fill-opacity:1;stroke:none"/><path d="M-320-35a5 5 0 1 1-10 0 5 5 0 1 1 10 0" style="fill:#000;fill-opacity:1;stroke:none" transform="matrix(5 0 0 5 2125 915)"/><path d="M487.5 612.362h25v120h-25zm-87.5-60h25v300h-25zm175 0h25v300h-25z" style="fill:#000;fill-opacity:1;stroke:none" transform="translate(0 -52.362)"/><path d="M312.5 670.625v25.156c49.334 6.146 87.5 48.22 87.5 99.219 0 1.673-.044 3.347-.125 5h25.031c.066-1.66.094-3.324.094-5 0-64.817-49.333-118.104-112.5-124.375" style="fill:#000;fill-opacity:1;stroke:none"/><path d="M-320-35a5 5 0 1 1-10 0 5 5 0 1 1 10 0" style="fill:#000;fill-opacity:1;stroke:none" transform="matrix(5 0 0 5 1862.5 855)"/><path d="M-320-35a5 5 0 1 1-10 0 5 5 0 1 1 10 0" style="fill:#000;fill-opacity:1;stroke:none" transform="matrix(5 0 0 5 2337.5 900)"/></svg>