<svg xmlns="http://www.w3.org/2000/svg" width="1000" height="1000"><path d="M1539.753 340.657c-8.821 0-17.42.766-25.937 1.875l-162.813 392.813c12.356 3.293 25.357 5.312 38.75 5.312h13.125l164.688-398.125c-9.079-1.265-18.381-1.875-27.813-1.875m76.563 15.313L1456.94 740.657h54.062l149.063-359.375c-13.435-10.215-27.954-18.737-43.75-25.312m-164.375 5c-36.471 17.898-66.714 46.59-86.563 81.875-.528.086-1.036.22-1.562.312l-96.875 233.438c10.414 14.839 23.454 27.903 38.437 38.125zm246.562 58.125-133.437 321.562h54.375l109.375-264.375c-7.061-20.725-17.293-40.142-30.313-57.187m-401.25 53.75c-34.92 27.401-57.5 69.946-57.5 117.812 0 6.262.505 12.377 1.25 18.438zm474.063 31.562-97.813 236.25h41.25c4.42 0 8.823-.177 13.125-.625l84.063-202.812c-11.032-13.63-24.843-24.8-40.625-32.813m67.5 98.125-45.938 110.625c28.488-22.91 46.875-58.097 46.875-97.5 0-4.465-.48-8.782-.937-13.125" style="fill:#000;fill-opacity:1;stroke:none" transform="translate(-1039.753 -40.657)"/></svg>