<svg xmlns="http://www.w3.org/2000/svg" width="1000" height="1000"><path d="M1259.628 270.626c-12.945 0-25.712.916-38.126 2.813a244 244 0 0 0-12.187 2.188 253 253 0 0 0-12.188 2.813c-3.994 1.028-7.961 2.22-11.875 3.438-7.828 2.436-15.335 4.964-22.813 8.127-.125.05-.188.26-.312.312-7.422 3.136-14.6 6.555-21.563 10.315a252 252 0 0 0-7.187 4.063c-1.318.773-2.76 1.391-4.063 2.188-.317.193-.622.431-.937.625-2.899 1.791-5.618 3.721-8.437 5.626-1.058.711-2.081 1.463-3.125 2.188-2.255 1.574-4.675 3.043-6.875 4.689-.65.485-1.23 1.072-1.875 1.563a251 251 0 0 0-7.5 5.938c-.843.694-1.667 1.484-2.5 2.188-2.205 1.87-4.425 3.683-6.563 5.626-.764.694-1.433 1.487-2.188 2.188-2.398 2.234-4.878 4.55-7.187 6.877-.518.522-1.05 1.036-1.563 1.563-2.07 2.121-3.944 4.37-5.937 6.564-2.69 2.96-5.265 5.976-7.813 9.064-2.238 2.718-4.445 5.322-6.562 8.127-.492.65-1.077 1.22-1.563 1.875-1.562 2.112-2.882 4.406-4.375 6.564-.862 1.241-1.66 2.493-2.5 3.75-.365.549-.889 1.012-1.25 1.563-1.594 2.43-3.177 5.015-4.687 7.502-1.142 1.884-2.347 3.714-3.438 5.626-1.44 2.523-2.711 4.932-4.063 7.502-1.406 2.666-2.75 5.404-4.062 8.127-.438.91-.823 1.896-1.25 2.813-1.412 3.026-2.77 5.973-4.063 9.064-.449 1.07-1.128 2.049-1.562 3.126-2.53 6.277-4.546 12.596-6.563 19.066-.229.733-.403 1.453-.625 2.188-.965 3.207-1.974 6.43-2.812 9.69-.747 2.891-1.543 5.83-2.188 8.751-.23 1.058-.408 2.064-.625 3.126-.128.616-.189 1.258-.312 1.875a256 256 0 0 0-1.875 10.628 243 243 0 0 0-1.25 9.064c-.132 1.146-.196 2.287-.312 3.438-.02.21.02.416 0 .625-.396 3.997-.732 7.828-.937 11.878v.312c-.07 1.319.04 2.74 0 4.063-.1 2.918-.314 5.823-.312 8.752 0 8.631.396 16.912 1.25 25.318.378 3.677.704 7.26 1.25 10.94.08.523.233 1.04.312 1.563a244 244 0 0 0 1.875 10.627c.754 3.83 1.574 7.487 2.5 11.252.126.51.183 1.054.312 1.563.535 2.115 1.287 4.158 1.875 6.251.532 1.884.984 3.747 1.563 5.626.1.314.215.626.312.938 1.173 3.762 2.388 7.51 3.75 11.252a250 250 0 0 0 4.687 11.877c1.582 3.74 3.245 7.296 5 10.94.1.21.212.42.312.62 1.664 3.43 3.187 6.975 5 10.315.177.33.446.61.625.94.293.53.641 1.031.937 1.564 3.45 6.175 7.307 12.29 11.25 18.128.34.5.596 1.064.938 1.563 1.923 2.802 3.905 5.408 5.937 8.126.45.6.796 1.28 1.25 1.876 1.974 2.59 4.18 4.99 6.25 7.501 2.548 3.088 5.123 6.105 7.813 9.065 2.036 2.242 4.14 4.404 6.25 6.564 1.03 1.054 2.076 2.09 3.125 3.125 1.112 1.099 1.994 2.363 3.125 3.439a260 260 0 0 0 4.375 4.063c.72.65 1.46 1.231 2.188 1.875 2.27 2.018 4.531 4.005 6.875 5.94.794.65 1.698 1.232 2.5 1.875 3.136 2.514 6.128 4.833 9.375 7.188 2.451 1.79 4.982 3.612 7.5 5.314.807.54 1.686 1.03 2.5 1.563 2.527 1.664 4.91 3.428 7.5 5 .899.541 1.906 1.031 2.812 1.564 2.55 1.504 5.207 2.96 7.813 4.376.837.45 1.658.81 2.5 1.25 6.294 3.31 12.824 6.613 19.375 9.377.816.34 1.68.6 2.5.94 9.888 4.05 19.961 7.24 30.313 10.003.639.17 1.234.46 1.875.62 3.694.96 7.509 1.713 11.25 2.5.32.1.617.25.937.31.517.11 1.045.21 1.563.31 3.553.7 7.02 1.325 10.625 1.876 3.047.47 5.993.89 9.062 1.25 1.146.13 2.287.2 3.438.31h.625c12.067 1.21 24.283 1.835 36.563 1.25 1.737-.1 3.573-.19 5.312-.31 2.378-.16 4.829-.4 7.188-.62.53 0 1.032-.26 1.562-.31 4.1-.42 8.15-.95 12.188-1.563 3.578-.55 7.05-1.16 10.625-1.876.626-.12 1.25-.19 1.875-.31 4.01-.83 8.189-1.773 12.188-2.812 7.67-1.994 15.214-4.423 22.813-7.19 10.386-3.78 20.445-8.167 30-13.127 4.777-2.48 9.503-5.062 14.062-7.814h.312c4.48-2.713 8.55-5.79 12.813-8.752 4.335-3.013 8.709-6.12 12.813-9.377 4.103-3.259 8.009-6.513 11.875-10.002.273-.25.666-.38.937-.62 3.577-3.258 6.946-6.872 10.312-10.315 2.225-2.276 4.433-4.523 6.563-6.877 1.341-1.476 2.756-2.867 4.062-4.376 1.3-1.507 2.489-3.152 3.75-4.688 2.03-2.46 4.002-4.964 5.938-7.501.496-.65 1.073-1.218 1.563-1.876 8.725-11.719 16.273-24.193 22.812-37.195a257 257 0 0 0 6.563-14.065c1.755-4.096 3.464-8.005 5-12.19.22-.604.409-1.271.625-1.876 1.728-4.827 3.256-9.76 4.687-14.69 1.432-4.932 2.623-9.984 3.75-15.004.1-.02.214.02.312 0 3.841-17.264 5.87-35.043 5.938-53.449-89.535 29.799-186.897-17.015-219.377-106.272-17.6-48.363-12.542-99.37 9.687-141.592-13.113-2.125-26.599-3.126-40.312-3.126zm-27.5 51.886c-5.37 35.88-2.029 73.534 11.25 110.023 32.715 89.904 116.65 146.378 206.877 148.156-18.04 57.21-61.456 105.73-122.19 127.84-103.767 37.775-218.483-15.925-256.252-119.714-37.768-103.789 15.608-218.527 119.376-256.303 13.475-4.906 27.252-8.09 40.938-10.002" style="fill:#000;fill-opacity:1;stroke:none" transform="translate(-759.628 -20.626)"/></svg>