<svg xmlns="http://www.w3.org/2000/svg" width="1000" height="1000"><path d="M567.438 332.844a161 161 0 0 0-28.313 2.469c-43.228 7.622-79.282 31.949-102.781 65.156-69.068 4.66-128.533 44.366-160.719 101.5C204.374 513.61 150 575.456 150 650c0 82.843 67.157 150 150 150h325c69.036 0 125-55.964 125-125 0-39.656-18.477-75.004-47.281-97.906 20.028-32.274 28.865-71.65 21.75-112-13.427-76.145-78.64-130.156-153.032-132.188a159 159 0 0 0-4-.062m-.157 50c52.28.12 98.573 37.653 107.969 90.937 5.159 29.259-1.836 57.809-17.25 80.625a124 124 0 0 0-13.937-2.968c-17.766-71.196-73.684-127.294-144.782-145.313a109.5 109.5 0 0 1 48.531-21.594 110.6 110.6 0 0 1 19.47-1.687M450 450c66.861 0 123.477 43.757 142.844 104.188-20.19 5.358-38.377 15.627-53.188 29.468l35.407 35.407C588.325 607.213 605.816 600 625 600c41.421 0 75 33.579 75 75s-33.579 75-75 75H300c-55.228 0-100-44.772-100-100s44.772-100 100-100c2.834 0 5.632.113 8.406.344C328.9 491.904 384.56 450 450 450m218.469 107.75" style="fill:#000;fill-opacity:1;stroke:none"/><path d="M517.025 252.367c-.323.012-.646.056-.97.094l-.25.03c-.094.014-.186.048-.28.063-.315.05-.63.083-.938.157l-.125.03q-.542.134-1.062.313l-.094.031c-.749.267-1.479.602-2.156 1-.078.046-.143.11-.22.157a12 12 0 0 0-.843.562c-.073.053-.147.102-.219.156a12 12 0 0 0-.5.407c-.505.43-.95.91-1.375 1.406-.125.147-.256.285-.375.437-.114.147-.236.287-.343.438-.135.19-.251.395-.375.594-.04.064-.086.123-.125.187-.115.191-.208.396-.313.594a12.4 12.4 0 0 0-1.219 3.375c-.017.084-.047.165-.062.25-.108.6-.17 1.23-.188 1.844l-7.093 81.156c-.004.032-.028.062-.032.094l-.03.468c-.073.824-.066 1.65.03 2.5.002.02-.002.043 0 .063.029.238.052.48.094.719.097.547.244 1.077.406 1.593.017.054.045.104.063.157.098.298.194.588.312.875.025.06.037.128.063.187.11.256.249.505.375.75q.15.286.312.563a12.5 12.5 0 0 0 3.625 3.937c.19.133.396.253.594.375a12.3 12.3 0 0 0 4.094 1.625c.146.03.289.07.437.094.144.023.293.044.438.062.17.022.328.048.5.063.43.038.858.037 1.281.031.174-.003.357-.02.531-.031.063-.004.125.004.188 0 .02-.002.042.002.062 0 .397-.03.802-.09 1.188-.156l41.687-7.344c.166-.023.334-.064.5-.094.245-.043.48-.1.72-.156.03-.008.061-.023.093-.031a13 13 0 0 0 1.125-.313c.053-.018.104-.043.156-.062.349-.126.7-.253 1.031-.407.035-.015.06-.046.094-.062a12.3 12.3 0 0 0 3.031-2.031c.092-.084.192-.164.282-.25a12 12 0 0 0 .812-.875 12.4 12.4 0 0 0 1.219-1.688c.051-.086.106-.163.156-.25.061-.108.098-.234.156-.344.319-.603.597-1.228.813-1.875.09-.269.178-.536.25-.812.008-.031.023-.062.031-.094a12.4 12.4 0 0 0 .344-3.937c-.02-.257-.059-.523-.094-.781v-.032c-.021-.155-.035-.312-.062-.468-.044-.245-.1-.48-.157-.72-.005-.021-.026-.04-.03-.062a12.5 12.5 0 0 0-.813-2.343l-34.813-74.688a12.6 12.6 0 0 0-2.219-3.406c-.164-.183-.326-.36-.5-.531-.126-.125-.243-.256-.375-.375-.067-.061-.15-.097-.218-.157a12.5 12.5 0 0 0-3.407-2.125q-.246-.099-.5-.187c-.22-.08-.431-.151-.656-.219q-.232-.067-.469-.125c-.03-.008-.062-.023-.093-.031a13 13 0 0 0-1.094-.219c-.281-.045-.56-.068-.844-.094-.116-.01-.228-.024-.344-.03a13 13 0 0 0-1.218-.032M338.807 353.891c-.24.216-.459.459-.682.695l-.172.184c-.064.07-.112.157-.175.229-.21.24-.43.469-.618.722l-.075.105q-.329.45-.613.922l-.052.084a12.6 12.6 0 0 0-1.009 2.152c-.03.085-.039.175-.067.26-.107.323-.205.644-.285.974-.021.087-.048.172-.067.26a12 12 0 0 0-.122.632c-.11.655-.144 1.309-.15 1.962 0 .192-.013.383-.005.576.007.185.003.371.018.556.02.232.061.464.094.696.01.075.013.15.025.224.035.22.095.437.142.655.252 1.18.657 2.31 1.236 3.37.041.075.07.156.113.23.303.53.66 1.052 1.041 1.534l46.732 66.729c.018.027.02.065.037.092l.277.379c.474.677 1.01 1.306 1.63 1.895.015.014.026.033.041.048.175.164.348.334.534.49.426.358.88.669 1.335.96.048.03.101.05.149.08.266.165.527.326.802.469.057.03.11.074.168.103.25.125.515.227.77.334q.298.122.6.23a12.5 12.5 0 0 0 5.308.686c.231-.02.466-.06.696-.094a12.3 12.3 0 0 0 4.18-1.387c.132-.072.267-.133.396-.21q.189-.113.375-.233c.144-.092.282-.174.424-.273.354-.248.68-.524 1.001-.8.131-.114.26-.245.387-.365.045-.044.098-.078.144-.12.014-.016.033-.026.048-.041.284-.278.556-.584.809-.883l27.214-32.422c.112-.124.214-.264.323-.393.16-.19.303-.385.45-.582.019-.026.032-.058.051-.084.23-.313.465-.636.661-.962.029-.048.052-.1.08-.149.187-.32.373-.643.529-.974.016-.034.016-.074.031-.108a12.3 12.3 0 0 0 1.017-3.504c.017-.124.041-.25.055-.373.03-.287.042-.572.053-.86q.006-.166.007-.332c.006-.7-.04-1.386-.151-2.076-.016-.1-.023-.194-.041-.292-.023-.122-.075-.243-.102-.364a12.5 12.5 0 0 0-.583-1.959 12 12 0 0 0-.33-.783c-.014-.029-.023-.063-.037-.092a12.4 12.4 0 0 0-2.267-3.237c-.18-.185-.38-.362-.574-.538l-.02-.024c-.117-.105-.228-.217-.35-.319-.19-.16-.385-.304-.581-.45-.018-.014-.046-.015-.064-.028-.68-.5-1.39-.928-2.13-1.273l-74.675-34.837a12.6 12.6 0 0 0-3.89-1.183 13 13 0 0 0-.724-.086c-.177-.014-.35-.04-.528-.046-.091-.003-.178.023-.268.021a12.5 12.5 0 0 0-3.976.562c-.17.054-.335.115-.503.177-.22.08-.428.162-.643.255q-.221.098-.44.205c-.029.014-.063.022-.092.037q-.496.244-.978.535c-.244.147-.472.307-.707.47-.095.067-.19.129-.283.198-.324.24-.653.487-.954.76zm509.742 298.244c.15-.285.274-.588.403-.886l.098-.232c.036-.088.052-.185.087-.275.113-.298.243-.587.333-.89l.036-.124q.155-.534.26-1.076l.02-.097a12.5 12.5 0 0 0 .212-2.367c0-.09-.023-.178-.025-.267a12 12 0 0 0-.066-1.012c-.01-.09-.014-.179-.026-.268a12 12 0 0 0-.102-.636 12 12 0 0 0-.53-1.894c-.065-.182-.118-.365-.191-.544-.07-.172-.13-.348-.207-.516-.098-.212-.217-.415-.327-.622-.035-.067-.063-.135-.1-.202-.108-.194-.239-.378-.358-.567a12.4 12.4 0 0 0-2.313-2.743c-.065-.057-.12-.123-.186-.18-.465-.392-.98-.76-1.503-1.083l-66.736-46.722c-.026-.02-.04-.055-.066-.074l-.39-.261a12.4 12.4 0 0 0-2.18-1.223c-.02-.008-.036-.023-.055-.031-.22-.095-.441-.195-.67-.278a13 13 0 0 0-1.583-.446c-.054-.012-.111-.012-.166-.024a13 13 0 0 0-.914-.167c-.065-.008-.13-.032-.194-.04-.277-.031-.56-.036-.837-.05a12 12 0 0 0-.643-.01 12.5 12.5 0 0 0-5.223 1.17c-.21.099-.416.217-.621.327a12.3 12.3 0 0 0-3.454 2.733c-.1.112-.205.215-.3.332q-.14.171-.273.348c-.104.135-.206.26-.304.401-.248.355-.461.725-.668 1.094-.084.152-.16.32-.239.476-.028.056-.065.106-.093.162q-.017.027-.032.055c-.172.358-.323.739-.458 1.106l-14.484 39.774c-.063.156-.112.322-.17.48-.084.233-.153.466-.224.7-.01.032-.01.066-.02.097-.108.373-.219.757-.291 1.13-.01.056-.015.112-.025.167-.066.365-.13.732-.164 1.096-.003.038.01.075.007.113a12.3 12.3 0 0 0 .244 3.64c.026.122.046.249.076.37.07.28.155.551.244.826a12.4 12.4 0 0 0 .959 2.214c.049.088.088.173.139.26.062.107.153.202.22.307a12.5 12.5 0 0 0 1.217 1.641c.188.212.375.423.578.623.024.022.043.052.066.074a12.4 12.4 0 0 0 3.238 2.266c.232.112.482.21.724.31.01.004.016.012.027.015.145.06.288.126.437.18.233.085.466.154.7.224.022.007.049-.002.07.004.81.238 1.624.397 2.436.468l82.088 7.196a12.6 12.6 0 0 0 4.06-.219c.24-.051.473-.102.71-.167.17-.048.343-.083.511-.137.087-.029.16-.082.245-.112a12.5 12.5 0 0 0 3.544-1.887q.208-.165.412-.34c.18-.15.346-.298.517-.459.117-.11.23-.228.343-.343.023-.023.052-.042.074-.066q.384-.399.736-.838c.18-.22.339-.45.503-.683.067-.096.135-.186.199-.283.222-.336.447-.68.636-1.04zm1.186-205.103c-.068-.315-.168-.627-.26-.938l-.075-.24c-.028-.092-.079-.177-.11-.267-.104-.301-.191-.606-.317-.896l-.052-.118q-.224-.509-.492-.992l-.047-.087a12.5 12.5 0 0 0-1.359-1.95c-.058-.068-.133-.121-.192-.188a12 12 0 0 0-.7-.733c-.066-.062-.126-.128-.192-.189a12 12 0 0 0-.487-.421 12 12 0 0 0-1.624-1.11c-.166-.098-.325-.204-.496-.294-.164-.086-.323-.183-.49-.262-.212-.1-.433-.179-.65-.266-.07-.03-.136-.064-.206-.09-.208-.08-.426-.137-.64-.205a12.4 12.4 0 0 0-3.535-.615c-.086-.002-.17-.018-.257-.018-.61-.002-1.24.047-1.848.136l-81.155 7.106c-.033.001-.066-.016-.098-.014l-.467.05c-.823.072-1.636.223-2.457.466-.02.006-.041.006-.061.01-.23.07-.464.135-.692.218-.522.19-1.019.427-1.499.676-.05.026-.093.063-.143.089-.277.148-.546.293-.808.46-.054.035-.119.058-.173.094-.233.153-.454.332-.674.5q-.255.196-.5.405a12.5 12.5 0 0 0-3.248 4.253c-.097.21-.18.434-.266.65a12.3 12.3 0 0 0-.89 4.314c-.003.15-.018.296-.016.447q.003.221.015.442c.008.17.01.331.025.503.038.43.113.852.192 1.267.033.17.082.348.123.518.015.061.018.124.032.185q.004.03.011.061c.099.385.228.774.36 1.143l14.471 39.779c.052.159.121.318.179.476.085.233.182.456.279.68.012.03.034.058.046.088.157.355.319.72.503 1.053l.089.143c.183.322.37.645.579.945.022.031.056.051.078.082a12.3 12.3 0 0 0 2.526 2.632c.099.077.195.161.295.234.234.17.474.323.719.476q.141.089.284.172c.602.355 1.22.659 1.874.908.093.036.178.076.273.11.117.042.247.056.366.094a13 13 0 0 0 2.831.58c.032.002.065.012.097.014a12.4 12.4 0 0 0 3.938-.345c.25-.064.504-.148.753-.228.01-.003.02-.001.03-.006.15-.048.302-.089.451-.143.234-.085.456-.182.681-.279.02-.008.036-.032.056-.041a12.5 12.5 0 0 0 2.167-1.208l67.508-47.253a12.6 12.6 0 0 0 2.969-2.776c.152-.194.297-.384.436-.585.1-.146.21-.284.305-.434.047-.077.07-.165.115-.243a12.5 12.5 0 0 0 1.502-3.723c.038-.175.067-.348.097-.525.041-.231.074-.451.102-.685q.026-.24.041-.483c.003-.032.013-.065.015-.098q.036-.551.025-1.115c-.005-.284-.03-.562-.054-.847-.01-.116-.016-.23-.029-.344a13 13 0 0 0-.18-1.205zM718.806 289.15c-.255-.197-.531-.371-.802-.55l-.212-.137c-.08-.05-.174-.084-.256-.133-.273-.164-.536-.341-.818-.483l-.116-.056a13 13 0 0 0-1.015-.444l-.091-.036c-.745-.278-1.52-.49-2.295-.62-.088-.015-.18-.008-.268-.021q-.503-.077-1.008-.112c-.09-.006-.178-.017-.268-.02a12 12 0 0 0-.644-.01 12.4 12.4 0 0 0-1.957.193c-.19.032-.38.053-.569.094-.181.039-.365.067-.544.114-.226.06-.446.141-.67.214-.071.023-.144.039-.215.063-.211.072-.414.17-.621.254a12.4 12.4 0 0 0-3.103 1.802c-.068.054-.143.096-.209.151-.468.39-.92.834-1.329 1.292l-57.6 57.61c-.024.021-.06.029-.084.052l-.325.339a12.4 12.4 0 0 0-1.583 1.935c-.011.017-.029.031-.04.048-.132.2-.27.4-.39.61-.279.482-.506.983-.714 1.483-.022.051-.032.108-.053.16-.117.29-.23.575-.323.87-.02.063-.054.122-.073.184-.08.267-.133.547-.194.816q-.07.315-.122.632a12.5 12.5 0 0 0 .245 5.346c.06.224.141.448.214.669a12.3 12.3 0 0 0 2.092 3.876c.093.117.176.24.275.353q.144.167.295.33c.115.125.22.247.342.369.306.305.634.58.962.847.135.11.286.213.427.318.05.037.093.083.144.12.016.013.03.029.047.04.323.232.672.447 1.01.644l36.655 21.17c.142.09.298.167.443.25.215.125.433.233.651.343.03.016.063.022.092.037.348.171.707.347 1.063.484.052.02.107.033.16.052.347.13.697.257 1.05.352.037.01.076.003.112.013a12.3 12.3 0 0 0 3.628.392c.125-.005.253-.002.376-.01.289-.02.571-.058.857-.098q.165-.023.328-.05a12.3 12.3 0 0 0 2.019-.51c.095-.032.186-.056.28-.09.116-.044.226-.117.34-.164a12.5 12.5 0 0 0 1.828-.914c.242-.148.482-.296.714-.461.026-.02.058-.033.084-.052a12.4 12.4 0 0 0 2.794-2.796c.151-.209.291-.437.43-.658.007-.01.016-.015.02-.025.084-.133.174-.262.254-.399.124-.215.232-.432.342-.651.01-.02.006-.048.016-.068.375-.756.673-1.53.884-2.318l21.34-79.59c.39-1.31.54-2.684.49-4.036a13 13 0 0 0-.041-.728c-.017-.177-.022-.353-.046-.529-.013-.09-.053-.17-.068-.26a12.5 12.5 0 0 0-1.243-3.817c-.083-.158-.172-.31-.263-.465a12 12 0 0 0-.362-.59c-.088-.133-.184-.266-.278-.397-.019-.026-.033-.058-.052-.084q-.327-.447-.698-.87c-.187-.215-.384-.412-.586-.615-.082-.082-.159-.165-.243-.244a13 13 0 0 0-.914-.808z" style="fill:#000;fill-opacity:1;stroke:none" transform="translate(0 -52.362)"/></svg>