<svg xmlns="http://www.w3.org/2000/svg" width="1000" height="1000"><path d="M600 200c-12.944 0-25.71.916-38.125 2.813A244 244 0 0 0 549.688 205a253 253 0 0 0-12.188 2.813c-3.994 1.027-7.96 2.22-11.875 3.437-7.828 2.435-15.335 4.962-22.812 8.125-.125.05-.189.26-.313.313-7.422 3.135-14.6 6.552-21.562 10.312a252 252 0 0 0-7.188 4.063c-1.318.773-2.76 1.39-4.062 2.187-.317.193-.623.431-.938.625-2.9 1.791-5.619 3.72-8.437 5.625-1.058.711-2.081 1.462-3.125 2.188-2.256 1.574-4.675 3.041-6.875 4.687-.65.485-1.23 1.072-1.875 1.563a251 251 0 0 0-7.5 5.937c-.844.694-1.667 1.483-2.5 2.188-2.205 1.87-4.425 3.68-6.563 5.625-.764.693-1.433 1.485-2.187 2.187-2.399 2.234-4.879 4.55-7.188 6.875-.518.522-1.05 1.036-1.562 1.563-2.07 2.121-3.944 4.4-5.938 6.593-2.69 2.96-5.265 5.975-7.812 9.063-2.239 2.718-4.446 5.32-6.563 8.125-.492.65-1.077 1.22-1.562 1.875-1.562 2.112-2.883 4.404-4.375 6.562-.863 1.242-1.661 2.493-2.5 3.75-.365.548-.89 1.012-1.25 1.563-1.594 2.429-3.177 5.013-4.688 7.5-1.142 1.883-2.346 3.713-3.437 5.625-1.44 2.523-2.712 4.93-4.063 7.5-1.406 2.666-2.751 5.403-4.062 8.125-.438.911-.823 1.896-1.25 2.812-1.412 3.027-2.77 5.972-4.063 9.063-.449 1.07-1.129 2.048-1.562 3.125-2.53 6.277-4.546 12.592-6.563 19.062-.229.733-.403 1.453-.625 2.188-.965 3.207-1.974 6.428-2.812 9.687-.748 2.892-1.544 5.83-2.188 8.75-.231 1.057-.408 2.063-.625 3.125-.128.616-.19 1.258-.312 1.875a256 256 0 0 0-1.875 10.625 243 243 0 0 0-1.25 9.063c-.132 1.146-.197 2.286-.313 3.437-.02.21.02.416 0 .625-.035.357-.062.709-.094 1.063-31.533 17.96-57.714 44.248-75.531 75.875C204.374 513.61 150 575.456 150 650c0 82.843 67.157 150 150 150h325c69.036 0 125-55.964 125-125 0-8.119-.772-16.063-2.25-23.75 2.547-1.828 5.14-3.609 7.563-5.531 4.103-3.259 8.009-6.512 11.875-10 .273-.25.666-.385.937-.625 3.577-3.258 6.947-6.869 10.313-10.313 2.224-2.275 4.432-4.521 6.562-6.875 1.341-1.476 2.756-2.866 4.063-4.375 1.3-1.507 2.488-3.152 3.75-4.687 2.03-2.46 4-4.963 5.937-7.5.496-.65 1.073-1.218 1.563-1.875 8.725-11.72 16.273-24.185 22.812-37.188a258 258 0 0 0 6.563-14.093c1.755-4.096 3.463-8.002 5-12.188.22-.603.408-1.27.625-1.875 1.727-4.827 3.256-9.757 4.687-14.687 1.431-4.931 2.622-9.98 3.75-15 .1-.02.215.02.313 0 3.84-17.265 5.869-35.033 5.937-53.438-89.535 29.798-186.895-17.024-219.375-106.281-17.6-48.363-12.542-99.373 9.688-141.594C627.199 201 613.713 200 600 200m-27.5 51.875c-5.369 35.88-2.028 73.543 11.25 110.031 32.716 89.904 116.648 146.38 206.875 148.157-11.432 36.255-33.08 68.984-62.844 93.75-19.135-27.57-49.1-47.077-83.718-52.375C622.358 464.456 543.703 400 450 400c-15.359 0-30.322 1.723-44.687 5 14.69-63.766 60.176-119.071 126.25-143.125 13.475-4.905 27.25-8.088 40.937-10M450 450c66.861 0 123.477 43.757 142.844 104.188-20.19 5.358-38.377 15.627-53.188 29.468l35.407 35.407C588.325 607.213 605.816 600 625 600c41.421 0 75 33.579 75 75s-33.579 75-75 75H300c-55.228 0-100-44.772-100-100s44.772-100 100-100c2.834 0 5.632.113 8.406.344C328.9 491.904 384.56 450 450 450" style="fill:#000;fill-opacity:1;stroke:none"/></svg>