<svg xmlns="http://www.w3.org/2000/svg" width="1000" height="1000"><path d="M600 647.5c-13.807 0-25 11.193-25 25V735c0 13.807 11.193 25 25 25s25-11.193 25-25v-62.5c0-13.807-11.193-25-25-25m-100 40c-13.807 0-25 11.193-25 25V775c0 13.807 11.193 25 25 25s25-11.193 25-25v-62.5c0-13.807-11.193-25-25-25m-100-40c-13.807 0-25 11.193-25 25V735c0 13.807 11.193 25 25 25s25-11.193 25-25v-62.5c0-13.807-11.193-25-25-25M600 485c-13.807 0-25 11.193-25 25v62.5c0 13.807 11.193 25 25 25s25-11.193 25-25V510c0-13.807-11.193-25-25-25m-100 40c-13.807 0-25 11.193-25 25v62.5c0 13.807 11.193 25 25 25s25-11.193 25-25V550c0-13.807-11.193-25-25-25" style="fill:#000;fill-opacity:1;stroke:none"/><path d="M500 200c-74.842 0-140.084 41.1-174.375 101.969C254.374 313.61 200 375.456 200 450c0 74.325 54.057 136.006 125 147.906v-51.062C281.865 535.747 250 496.6 250 450c0-55.228 44.772-100 100-100 2.834 0 5.632.113 8.406.344C378.9 291.904 434.56 250 500 250c66.861 0 123.477 43.757 142.844 104.188-20.19 5.358-38.377 15.627-53.188 29.468l35.407 35.406C638.325 407.215 655.816 400 675 400c41.421 0 75 33.579 75 75s-33.579 75-75 75v50c69.036 0 125-55.964 125-125 0-62.553-45.952-114.382-105.937-123.562C672.358 264.456 593.703 200 500 200" style="fill:#000;fill-opacity:1;stroke:none"/><path d="M400 485c-13.807 0-25 11.193-25 25v62.5c0 13.807 11.193 25 25 25s25-11.193 25-25V510c0-13.807-11.193-25-25-25" style="fill:#000;fill-opacity:1;stroke:none"/></svg>