<svg xmlns="http://www.w3.org/2000/svg" width="1000" height="1000"><path d="M566.688 684.438c-6.904 0-12.5 5.596-12.5 12.5 0 6.903 5.596 12.5 12.5 12.5h115c6.903 0 12.5-5.597 12.5-12.5 0-6.904-5.597-12.5-12.5-12.5z" style="fill:#000;fill-opacity:1;stroke:none" transform="rotate(10 290.56 -652.7)"/><path d="M584.612 792.846c-3.452 5.979-1.403 13.624 4.576 17.075 5.978 3.452 13.623 1.404 17.075-4.575l57.5-99.593c3.452-5.978 1.403-13.623-4.575-17.075-5.98-3.452-13.624-1.403-17.076 4.575z" style="fill:#000;fill-opacity:1;stroke:none" transform="rotate(10 589.812 -626.518)"/><path d="M642.112 805.346c3.452 5.979 11.097 8.027 17.076 4.575 5.978-3.451 8.027-11.096 4.575-17.075l-57.5-99.593c-3.452-5.978-11.097-8.027-17.075-4.575-5.98 3.452-8.028 11.097-4.576 17.075z" style="fill:#000;fill-opacity:1;stroke:none" transform="rotate(10 589.812 -626.518)"/><path d="M500 252.362c-74.842 0-140.084 41.1-174.375 101.969C254.374 365.974 200 427.819 200 502.362c0 81.17 64.472 147.269 145 149.906v-50.03c-52.91-2.601-95-46.32-95-99.876 0-55.228 44.772-100 100-100 2.834 0 5.632.113 8.406.344C378.9 344.266 434.56 302.362 500 302.362c66.861 0 123.477 43.757 142.844 104.188-20.19 5.358-38.377 15.627-53.188 29.468l35.407 35.407c13.262-11.849 30.753-19.063 49.937-19.063 41.421 0 75 33.579 75 75s-33.579 75-75 75h-20v50h20c69.036 0 125-55.964 125-125 0-62.553-45.952-114.381-105.937-123.562C672.358 316.818 593.703 252.362 500 252.362" style="fill:#000;fill-opacity:1;stroke:none" transform="translate(0 -52.362)"/><path d="M566.688 684.438c-6.904 0-12.5 5.596-12.5 12.5 0 6.903 5.596 12.5 12.5 12.5h115c6.903 0 12.5-5.597 12.5-12.5 0-6.904-5.597-12.5-12.5-12.5z" style="fill:#000;fill-opacity:1;stroke:none"/><path d="M584.612 792.846c-3.452 5.979-1.403 13.624 4.576 17.075 5.978 3.452 13.623 1.404 17.075-4.575l57.5-99.593c3.452-5.978 1.403-13.623-4.575-17.075-5.98-3.452-13.624-1.403-17.076 4.575z" style="fill:#000;fill-opacity:1;stroke:none" transform="translate(0 -52.362)"/><path d="M642.112 805.346c3.452 5.979 11.097 8.027 17.076 4.575 5.978-3.451 8.027-11.096 4.575-17.075l-57.5-99.593c-3.452-5.978-11.097-8.027-17.075-4.575-5.98 3.452-8.028 11.097-4.576 17.075z" style="fill:#000;fill-opacity:1;stroke:none" transform="translate(0 -52.362)"/><path d="M566.688 684.438c-6.904 0-12.5 5.596-12.5 12.5 0 6.903 5.596 12.5 12.5 12.5h115c6.903 0 12.5-5.597 12.5-12.5 0-6.904-5.597-12.5-12.5-12.5z" style="fill:#000;fill-opacity:1;stroke:none" transform="rotate(-10 -254.582 1320.84)"/><path d="M584.612 792.846c-3.452 5.979-1.403 13.624 4.576 17.075 5.978 3.452 13.623 1.404 17.075-4.575l57.5-99.593c3.452-5.978 1.403-13.623-4.575-17.075-5.98-3.452-13.624-1.403-17.076 4.575z" style="fill:#000;fill-opacity:1;stroke:none" transform="rotate(-10 -553.833 1347.022)"/><path d="M642.112 805.346c3.452 5.979 11.097 8.027 17.076 4.575 5.978-3.451 8.027-11.096 4.575-17.075l-57.5-99.593c-3.452-5.978-11.097-8.027-17.075-4.575-5.98 3.452-8.028 11.097-4.576 17.075z" style="fill:#000;fill-opacity:1;stroke:none" transform="rotate(-10 -553.833 1347.022)"/></svg>