<svg xmlns="http://www.w3.org/2000/svg" width="1000" height="1000"><path d="m-507.25 594.077-32.812 122.187-6.563 25h37.188l-9.688 35.938-12.812 48.437-12.813 48.438 35.313-35.313 96.25-95.937 40-40 25-25h-51.875l48.437-83.75h-38.75l-48.437 83.75-14.375 25h34.687l-31.562 31.25-29.375 29.375 5.625-21.563.312-.62 6.875-25h-37.5l32.5-122.187h-35.625z" style="fill:#000;fill-opacity:1;stroke:none" transform="translate(944.75 -74.077)"/><path d="M-444.75 274.077c-74.842 0-140.084 41.1-174.375 101.969-71.251 11.643-125.625 73.487-125.625 148.031 0 81.17 64.472 147.269 145 149.906v-50.03c-52.91-2.601-95-46.32-95-99.876 0-55.228 44.772-100 100-100 2.834 0 5.632.113 8.406.344 20.494-58.44 76.154-100.344 141.594-100.344 66.861 0 123.477 43.757 142.844 104.188-20.19 5.358-38.377 15.627-53.188 29.468l35.406 35.407c13.263-11.849 30.754-19.063 49.938-19.063 41.421 0 75 33.579 75 75s-33.579 75-75 75h-20v50h20c69.036 0 125-55.964 125-125 0-62.553-45.952-114.382-105.937-123.562-21.705-86.982-100.36-151.438-194.063-151.438" style="fill:#000;fill-opacity:1;stroke:none" transform="translate(944.75 -74.077)"/></svg>