<svg xmlns="http://www.w3.org/2000/svg" width="1000" height="1000"><path d="M271.9 361.02c-.24.216-.46.458-.683.694l-.171.185c-.064.07-.113.156-.175.229-.21.24-.43.468-.618.722l-.076.104q-.327.45-.613.922l-.052.085a12.6 12.6 0 0 0-1.009 2.152c-.03.084-.038.175-.067.26-.106.323-.205.643-.284.973-.022.088-.048.173-.068.26-.046.212-.086.42-.121.633a12.4 12.4 0 0 0-.15 1.961c0 .193-.014.383-.006.576.007.186.003.372.018.556.02.233.062.464.094.696.012.075.013.15.025.224.035.22.095.437.142.656.253 1.18.658 2.31 1.236 3.369.042.075.07.156.113.232.303.528.66 1.05 1.041 1.533l46.732 66.729c.018.027.02.065.036.092l.278.379c.474.677 1.01 1.306 1.63 1.895.017.013.027.033.04.048.175.164.349.334.535.49.426.358.88.669 1.335.96.047.03.1.05.148.08.267.165.527.326.802.469.058.03.11.074.169.103.249.125.514.227.77.334q.296.123.6.23c1.714.617 3.53.842 5.308.686.23-.02.466-.06.696-.094a12.3 12.3 0 0 0 4.18-1.387c.132-.071.266-.133.396-.21q.189-.112.375-.233c.144-.092.282-.174.423-.273a13 13 0 0 0 1.002-.8c.13-.114.26-.245.387-.365.045-.043.098-.078.143-.12.014-.017.033-.027.048-.04.284-.278.557-.584.81-.884l27.214-32.421c.112-.125.214-.264.322-.394.16-.19.304-.385.45-.581.02-.027.033-.058.052-.085.23-.312.465-.635.661-.962.029-.048.052-.1.08-.148.187-.32.373-.643.529-.974.016-.035.016-.074.031-.109a12.3 12.3 0 0 0 1.017-3.504c.016-.123.041-.249.054-.372a12 12 0 0 0 .053-.86 12.4 12.4 0 0 0-.144-2.408c-.015-.1-.023-.194-.04-.293-.023-.122-.076-.242-.102-.364a12.5 12.5 0 0 0-.583-1.958c-.105-.264-.208-.526-.33-.783-.016-.029-.024-.063-.038-.092a12.4 12.4 0 0 0-2.267-3.237c-.18-.185-.38-.363-.574-.539l-.021-.023c-.116-.105-.228-.217-.35-.319-.19-.16-.384-.304-.58-.45-.02-.014-.047-.015-.065-.028-.68-.5-1.39-.928-2.129-1.273l-74.676-34.837a12.6 12.6 0 0 0-3.889-1.183c-.244-.035-.48-.066-.725-.086-.176-.014-.35-.04-.528-.046-.09-.003-.177.022-.268.02a12.5 12.5 0 0 0-3.975.562c-.17.055-.335.116-.504.178-.22.08-.427.162-.643.254q-.22.1-.44.206c-.028.015-.062.023-.091.037-.33.161-.659.341-.979.535-.244.147-.472.307-.706.47-.095.068-.19.13-.284.198-.323.24-.652.487-.953.76zm-71.265 192.328c-.044.32-.057.646-.076.97l-.013.252c-.004.095.015.192.013.288-.005.319-.028.635-.009.95l.009.129a12.5 12.5 0 0 0 .748 3.495c.032.084.083.16.116.243.126.315.257.624.407.928.04.081.075.163.117.243.1.192.202.376.313.563.336.572.73 1.094 1.146 1.598.123.148.236.302.366.445.125.138.24.283.37.415.165.165.346.315.52.472.057.05.107.106.164.156.168.146.353.273.53.41a12.4 12.4 0 0 0 3.112 1.787c.08.031.154.075.235.105.572.21 1.182.38 1.784.505l78.691 21.078c.031.01.056.038.087.047l.456.112c.798.215 1.614.351 2.468.404.02 0 .04.009.061.01.24.014.481.033.724.033.556 0 1.104-.053 1.64-.123.056-.008.11-.026.165-.035.31-.045.613-.089.916-.156.063-.014.132-.014.195-.029.271-.064.54-.157.804-.24q.307-.096.608-.209a12.5 12.5 0 0 0 4.507-2.886c.164-.164.318-.346.473-.52a12.3 12.3 0 0 0 2.311-3.75c.055-.138.119-.272.168-.414.048-.137.095-.28.138-.42.05-.163.104-.315.148-.481.112-.418.186-.84.253-1.257.028-.171.042-.354.062-.528.007-.063.026-.123.032-.185.001-.02.01-.04.011-.061.04-.396.051-.805.053-1.197l.007-42.33c.007-.167-.005-.34-.005-.508 0-.248-.015-.49-.03-.735-.002-.033-.012-.066-.014-.098a13 13 0 0 0-.112-1.162c-.009-.055-.025-.11-.035-.165a12 12 0 0 0-.221-1.086c-.01-.036-.036-.066-.045-.103a12.3 12.3 0 0 0-1.474-3.338c-.067-.105-.128-.218-.198-.32a12 12 0 0 0-.512-.694 13 13 0 0 0-1.658-1.752c-.076-.066-.142-.133-.22-.197-.095-.079-.213-.138-.31-.214a12.5 12.5 0 0 0-1.706-1.125c-.25-.136-.497-.27-.757-.388-.03-.013-.057-.034-.087-.047a12.4 12.4 0 0 0-3.818-1.022c-.256-.026-.524-.033-.785-.043-.008 0-.02-.005-.031-.005-.157-.006-.314-.02-.473-.02-.248 0-.49.015-.735.029-.022 0-.044.018-.067.02-.842.053-1.661.182-2.449.393l-79.6 21.315a12.6 12.6 0 0 0-3.739 1.593c-.209.13-.41.259-.61.4-.145.103-.294.195-.434.304-.072.056-.122.132-.192.189a12.5 12.5 0 0 0-2.685 2.985c-.095.151-.182.304-.271.46-.117.203-.224.399-.33.608q-.105.218-.204.44c-.013.03-.034.057-.047.087q-.224.506-.405 1.04c-.093.269-.165.538-.239.814-.03.112-.064.22-.09.333-.094.392-.187.793-.243 1.195zm69.035 193.14c.171.273.372.531.565.792q.075.101.152.201c.058.076.135.138.195.212.201.248.387.505.604.734l.09.093q.385.4.801.764.038.032.074.065c.605.515 1.26.98 1.944 1.368.079.044.167.068.245.11.3.162.598.314.91.45.082.037.16.077.244.112.2.082.397.158.602.23a12.4 12.4 0 0 0 1.905.487c.19.035.375.08.566.106.185.025.367.062.551.079.233.021.468.02.702.028.076.003.15.013.225.014.223.004.447-.017.67-.026a12.4 12.4 0 0 0 3.533-.632c.081-.027.166-.041.247-.07.574-.207 1.15-.469 1.69-.76l73.831-34.434c.03-.013.067-.008.097-.02l.421-.208a12.4 12.4 0 0 0 2.15-1.277c.016-.013.037-.02.054-.031.192-.144.39-.285.575-.441.426-.357.811-.75 1.177-1.149.039-.04.067-.09.104-.132.21-.234.413-.462.602-.708.04-.052.092-.096.131-.148.166-.224.313-.468.462-.7q.173-.27.331-.552a12.5 12.5 0 0 0 1.598-5.108c.02-.23.02-.469.027-.701a12.3 12.3 0 0 0-.64-4.358c-.046-.142-.084-.285-.137-.426a12 12 0 0 0-.165-.41c-.065-.158-.123-.308-.195-.464a13 13 0 0 0-.614-1.125c-.09-.15-.197-.299-.293-.445-.033-.053-.059-.11-.093-.162-.014-.017-.021-.037-.032-.054-.225-.328-.478-.65-.73-.95l-27.203-32.431c-.103-.132-.222-.258-.33-.387-.16-.19-.327-.366-.495-.544-.023-.024-.052-.042-.074-.066-.269-.28-.546-.568-.833-.818l-.133-.104a13 13 0 0 0-.867-.69c-.031-.021-.07-.028-.101-.05a12.3 12.3 0 0 0-3.275-1.61c-.118-.037-.238-.083-.357-.118a12 12 0 0 0-.838-.201 12.4 12.4 0 0 0-2.397-.276c-.1-.003-.194-.012-.294-.011-.124 0-.252.032-.376.036a12.5 12.5 0 0 0-2.03.234c-.278.057-.554.114-.829.19-.03.01-.065.011-.097.02a12.4 12.4 0 0 0-3.581 1.671c-.213.146-.424.312-.63.472l-.027.016c-.124.097-.253.187-.374.289-.19.16-.366.327-.545.495-.016.015-.022.042-.038.058a12.5 12.5 0 0 0-1.624 1.876l-47.275 67.492a12.6 12.6 0 0 0-1.84 3.624c-.076.235-.149.462-.21.7-.045.17-.1.338-.138.511-.018.09-.009.179-.026.268a12.5 12.5 0 0 0-.137 4.012q.038.264.088.527c.04.231.085.45.139.678.037.155.083.313.126.468.01.031.011.066.02.097.102.353.222.708.357 1.056.103.266.22.519.341.778.05.105.094.21.145.313.18.36.367.728.582 1.071m177.031 103.579c.307.099.627.168.943.243q.122.03.245.056c.093.02.192.02.286.038.313.06.62.138.934.174q.064.008.128.013.555.06 1.106.07.05.005.098.003a12.5 12.5 0 0 0 2.368-.202c.089-.017.172-.055.26-.072.332-.07.659-.145.985-.24.086-.025.173-.046.259-.072.206-.066.406-.135.608-.21a12.4 12.4 0 0 0 1.773-.852c.168-.096.34-.18.502-.283.158-.099.32-.188.473-.293.192-.134.371-.286.556-.43.06-.047.123-.086.181-.134.173-.14.331-.3.497-.45a12.4 12.4 0 0 0 2.3-2.755c.044-.074.1-.14.144-.214.306-.527.58-1.098.807-1.668l34.423-73.836c.015-.029.046-.049.061-.077l.19-.43c.35-.749.625-1.528.825-2.36.006-.02.017-.04.022-.059.055-.233.115-.468.158-.707.096-.548.138-1.096.163-1.637.003-.056-.007-.112-.005-.168.01-.314.019-.62.006-.93-.002-.064.009-.132.005-.197-.017-.278-.061-.559-.096-.833a12 12 0 0 0-.101-.635 12.5 12.5 0 0 0-2.06-4.94c-.133-.19-.285-.373-.43-.556a12.3 12.3 0 0 0-3.29-2.927c-.128-.077-.248-.164-.38-.237-.127-.071-.26-.142-.39-.209-.151-.078-.292-.157-.448-.23a13 13 0 0 0-1.193-.467c-.164-.057-.342-.102-.51-.152-.06-.018-.116-.047-.176-.065l-.059-.021a13 13 0 0 0-1.17-.26l-41.684-7.356c-.164-.035-.336-.054-.502-.083-.245-.043-.486-.07-.729-.1-.032-.002-.067.001-.099-.002a13 13 0 0 0-1.164-.091c-.056-.001-.112.005-.168.005a12 12 0 0 0-1.108.029c-.038.003-.072.023-.11.026a12.3 12.3 0 0 0-3.543.872c-.115.047-.236.088-.35.139-.264.117-.516.249-.771.384a13 13 0 0 0-2.014 1.329c-.078.063-.156.116-.232.181-.094.08-.173.187-.264.27-.506.458-.981.95-1.405 1.484a12 12 0 0 0-.513.678c-.018.027-.043.05-.061.077a12.4 12.4 0 0 0-1.67 3.583c-.07.248-.124.51-.18.766 0 .008-.008.019-.01.03-.033.153-.074.305-.101.461-.043.245-.07.486-.1.729-.002.022.011.047.009.07a12.5 12.5 0 0 0-.038 2.48l7.168 82.09a12.6 12.6 0 0 0 .92 3.959c.093.228.184.45.288.67.076.16.141.324.224.481.043.08.109.142.153.221a12.5 12.5 0 0 0 2.474 3.162q.198.178.406.347c.18.151.354.29.541.43q.197.143.398.278c.027.018.05.043.078.062q.46.309.952.58c.25.138.502.255.761.376.106.05.207.1.313.147.369.16.748.321 1.134.446zm202.194-34.447c.298-.122.587-.275.878-.42l.224-.115c.085-.043.16-.108.243-.155.279-.155.564-.293.828-.467l.106-.073q.462-.31.892-.657l.077-.061a12.5 12.5 0 0 0 1.684-1.677c.058-.07.097-.152.152-.222.211-.267.413-.535.601-.817.05-.075.104-.146.152-.222.116-.183.225-.364.331-.553.328-.577.583-1.18.811-1.791.067-.181.144-.356.203-.54.057-.177.124-.35.173-.528.061-.226.1-.457.15-.687.015-.073.038-.144.053-.219.042-.218.06-.443.09-.664a12.4 12.4 0 0 0-.009-3.589c-.013-.085-.012-.17-.026-.256-.104-.6-.262-1.213-.455-1.797l-21.09-78.688c-.008-.032.005-.067-.003-.099l-.132-.45a12.4 12.4 0 0 0-.884-2.34c-.01-.017-.014-.04-.021-.058-.108-.214-.213-.433-.334-.644a13 13 0 0 0-.927-1.358c-.034-.045-.077-.082-.112-.126a13 13 0 0 0-.592-.716c-.045-.047-.08-.107-.123-.154-.192-.203-.407-.389-.61-.577a13 13 0 0 0-.485-.421 12.5 12.5 0 0 0-4.753-2.46c-.224-.06-.459-.103-.687-.15a12.3 12.3 0 0 0-4.402-.127c-.148.022-.295.034-.443.062q-.217.041-.433.09c-.167.038-.325.068-.491.113-.418.112-.82.259-1.215.41-.162.061-.328.14-.488.21-.058.024-.12.04-.177.064-.018.01-.039.014-.058.021-.362.164-.723.358-1.063.553l-36.662 21.159c-.148.079-.292.174-.438.258-.215.125-.417.259-.622.393-.027.018-.05.043-.077.062-.322.215-.654.438-.95.678-.043.035-.083.076-.126.112-.285.237-.57.476-.83.734-.026.027-.04.064-.067.091a12.3 12.3 0 0 0-2.153 2.946c-.058.11-.125.22-.18.33-.126.26-.235.524-.343.791q-.062.154-.12.31a12.4 12.4 0 0 0-.569 2.002c-.02.099-.044.19-.06.289-.022.122-.013.253-.03.376-.093.676-.14 1.359-.122 2.04.008.284.015.565.043.849.004.032 0 .067.003.099a12.4 12.4 0 0 0 1.023 3.817c.107.235.234.471.356.702q.007.015.01.03c.074.138.141.281.22.419.124.214.258.417.393.622.012.018.038.029.05.047a12.5 12.5 0 0 0 1.565 1.925l58.258 58.277a12.6 12.6 0 0 0 3.25 2.442c.217.115.43.226.652.328.161.073.316.157.48.224.084.034.174.04.26.072a12.5 12.5 0 0 0 3.927.832c.178.007.354.006.534.005.235 0 .457-.005.691-.02.16-.01.323-.027.484-.042.031-.006.066 0 .098-.003q.55-.059 1.103-.169c.279-.059.548-.127.825-.2.112-.03.223-.056.333-.088.386-.115.78-.235 1.156-.388zm132.746-156.356c.15-.285.274-.588.403-.886l.098-.232c.037-.088.053-.186.087-.275.114-.298.243-.587.333-.89l.036-.124q.155-.535.26-1.076l.02-.097a12.5 12.5 0 0 0 .213-2.367c0-.09-.023-.178-.026-.268-.01-.34-.027-.674-.065-1.012-.01-.09-.015-.178-.026-.267a12 12 0 0 0-.102-.636 12.4 12.4 0 0 0-.53-1.894c-.065-.182-.118-.365-.192-.544-.07-.172-.13-.348-.207-.516-.098-.212-.216-.415-.326-.622-.036-.067-.064-.136-.1-.202-.108-.195-.239-.378-.358-.568a12.4 12.4 0 0 0-2.313-2.743c-.065-.056-.12-.123-.186-.179-.465-.393-.98-.761-1.503-1.084l-66.736-46.721c-.026-.02-.04-.055-.066-.074l-.39-.262a12.4 12.4 0 0 0-2.181-1.223c-.019-.008-.036-.022-.054-.031-.22-.095-.441-.195-.67-.278a13 13 0 0 0-1.583-.445c-.054-.013-.112-.013-.166-.025a13 13 0 0 0-.914-.167c-.065-.008-.13-.032-.194-.04-.277-.031-.561-.036-.837-.05a12 12 0 0 0-.643-.01 12.5 12.5 0 0 0-5.223 1.17c-.21.099-.416.217-.621.327a12.3 12.3 0 0 0-3.455 2.733c-.098.112-.204.216-.3.332q-.139.171-.272.348c-.104.136-.206.26-.304.402-.248.354-.462.725-.668 1.094-.084.152-.16.319-.239.475-.028.057-.065.107-.093.163l-.032.054c-.172.358-.323.739-.458 1.106l-14.484 39.774c-.063.156-.112.322-.17.48-.085.233-.153.466-.224.7-.01.032-.01.067-.02.097-.108.373-.219.757-.292 1.13-.01.056-.014.112-.024.167-.066.365-.131.732-.164 1.097-.002.037.01.075.007.112a12.3 12.3 0 0 0 .244 3.64c.026.122.045.25.075.37.07.28.156.552.245.826q.052.159.107.315c.233.659.512 1.288.852 1.899.049.088.088.174.138.26.063.107.154.202.22.307.363.578.766 1.131 1.218 1.641.188.212.375.423.578.623.024.022.043.052.066.074a12.4 12.4 0 0 0 3.238 2.266c.232.112.482.21.724.31.01.002.017.012.027.015.145.06.288.126.437.18.233.085.466.154.7.224.022.007.049-.002.07.004.81.238 1.624.397 2.437.468l82.087 7.196c1.356.156 2.736.065 4.06-.219.24-.051.474-.102.71-.167.17-.047.343-.083.512-.137.086-.029.159-.082.245-.111a12.5 12.5 0 0 0 3.543-1.887c.141-.11.275-.224.412-.34.18-.15.347-.298.518-.459.116-.11.23-.228.343-.343.022-.024.051-.043.073-.066q.383-.399.737-.838c.179-.221.338-.45.503-.684.066-.095.135-.186.198-.282.223-.336.447-.681.637-1.04zm1.186-205.104c-.067-.315-.167-.626-.26-.938l-.074-.24c-.029-.091-.079-.176-.11-.266-.105-.302-.192-.607-.317-.897l-.052-.117a13 13 0 0 0-.493-.992c-.017-.028-.03-.06-.047-.087a12.6 12.6 0 0 0-1.359-1.95c-.058-.069-.133-.121-.192-.188a12 12 0 0 0-.7-.733c-.066-.063-.126-.128-.192-.189-.16-.146-.32-.284-.487-.422a12 12 0 0 0-1.624-1.11c-.166-.097-.325-.203-.496-.293-.164-.087-.323-.183-.49-.262-.211-.1-.433-.179-.65-.267-.07-.028-.136-.063-.206-.09-.208-.08-.426-.136-.64-.205a12.4 12.4 0 0 0-3.535-.614c-.086-.002-.17-.018-.257-.018-.61-.002-1.24.047-1.848.135l-81.155 7.107c-.033.002-.066-.017-.098-.014l-.467.05c-.823.072-1.636.223-2.457.465-.018.007-.041.006-.062.01-.23.07-.463.135-.691.218a13 13 0 0 0-1.5.677c-.049.025-.093.062-.142.088-.277.148-.546.293-.808.46-.054.036-.12.058-.174.094-.232.153-.453.332-.673.5q-.255.196-.5.405a12.5 12.5 0 0 0-3.248 4.253c-.098.21-.18.434-.266.65a12.3 12.3 0 0 0-.89 4.314c-.003.15-.018.297-.016.447q.003.221.014.442c.008.17.01.331.026.503.037.43.112.852.192 1.267.033.17.082.348.123.518.013.061.017.124.032.185.006.02.006.04.01.061.1.385.228.774.36 1.143l14.471 39.779c.052.159.121.318.179.476.085.233.182.456.279.68.013.03.034.058.047.087.156.355.318.72.503 1.054.027.049.06.095.088.143.184.322.37.645.58.945.022.031.056.051.077.082a12.3 12.3 0 0 0 2.527 2.632c.098.077.195.16.295.234.234.17.474.323.718.476a13 13 0 0 0 2.158 1.08c.094.036.179.076.273.11.117.041.248.056.366.094.65.209 1.314.374 1.988.475.28.041.559.082.843.105.033 0 .066.012.098.014a12.4 12.4 0 0 0 3.937-.345c.25-.064.505-.148.753-.228.01-.004.021-.003.031-.006.15-.049.302-.09.45-.143.234-.085.457-.182.682-.279.02-.009.035-.032.056-.042q1.162-.507 2.167-1.207l67.507-47.253a12.6 12.6 0 0 0 2.97-2.776c.151-.194.297-.384.436-.585.1-.146.21-.284.304-.434.048-.077.07-.165.116-.243a12.5 12.5 0 0 0 1.501-3.723q.055-.261.098-.525c.04-.231.073-.452.101-.685q.025-.24.042-.483c.002-.032.012-.065.014-.098q.038-.551.026-1.115c-.005-.285-.03-.562-.054-.847-.01-.116-.016-.23-.03-.344-.045-.4-.095-.809-.18-1.206zM651.898 296.28c-.254-.198-.53-.373-.802-.552l-.212-.136c-.08-.051-.173-.084-.255-.133-.274-.164-.536-.342-.819-.483l-.116-.057a13 13 0 0 0-1.014-.443l-.092-.037a12.6 12.6 0 0 0-2.294-.62c-.09-.015-.18-.008-.268-.021a12 12 0 0 0-1.008-.111c-.09-.006-.179-.017-.268-.021a12 12 0 0 0-.644-.01 12.4 12.4 0 0 0-1.958.193c-.19.032-.38.053-.568.094-.182.04-.366.068-.545.114-.225.06-.446.141-.669.214-.072.023-.144.039-.216.063-.21.072-.414.17-.621.254a12.4 12.4 0 0 0-3.103 1.802c-.067.054-.142.096-.209.151-.468.39-.92.833-1.329 1.292l-57.6 57.61c-.024.022-.06.029-.084.051l-.325.34a12.4 12.4 0 0 0-1.583 1.935c-.011.017-.028.031-.04.047-.132.2-.27.4-.39.611a13 13 0 0 0-.714 1.482c-.022.052-.032.108-.053.16-.117.291-.23.575-.323.87-.02.063-.054.123-.073.185-.08.267-.133.546-.194.815q-.07.315-.123.632a12.5 12.5 0 0 0 .246 5.347c.06.223.141.448.214.669a12.3 12.3 0 0 0 2.092 3.876c.093.117.176.238.275.353q.144.167.294.329c.116.125.221.247.343.37.306.305.634.58.962.847.135.109.286.213.427.317.05.037.093.083.143.12q.024.023.048.041c.323.232.672.447 1.01.644l36.655 21.17c.142.09.297.166.443.25.215.125.432.233.651.343.029.015.063.022.092.036.348.172.706.347 1.062.484.052.02.107.034.16.053.348.129.698.256 1.051.352.037.01.076.003.112.012a12.3 12.3 0 0 0 3.628.393c.124-.005.252-.002.376-.01.288-.021.57-.058.856-.098a12.4 12.4 0 0 0 2.347-.56c.095-.033.186-.056.28-.091.117-.043.226-.117.341-.163a12.5 12.5 0 0 0 1.828-.914c.241-.15.481-.297.713-.462.026-.02.058-.034.084-.052a12.4 12.4 0 0 0 2.795-2.796c.15-.209.29-.437.43-.658.005-.01.015-.015.02-.025.083-.133.174-.262.253-.4.124-.214.232-.431.342-.65.011-.02.006-.048.017-.068q.564-1.135.884-2.318l21.34-79.591c.39-1.309.54-2.683.49-4.036a13 13 0 0 0-.042-.728c-.017-.176-.022-.352-.046-.528-.013-.09-.053-.171-.067-.26a12.5 12.5 0 0 0-1.243-3.818c-.083-.158-.172-.31-.262-.465a12 12 0 0 0-.363-.59c-.088-.133-.184-.265-.278-.396-.02-.027-.034-.058-.052-.085q-.327-.447-.698-.87c-.186-.215-.384-.412-.586-.614-.082-.082-.16-.166-.243-.245a13 13 0 0 0-.913-.807zm-201.781-36.785c-.322.012-.646.057-.969.094l-.25.031c-.094.013-.187.047-.281.063-.315.05-.63.083-.938.156l-.125.031q-.54.133-1.062.313-.046.016-.094.03c-.748.267-1.479.602-2.156 1-.077.047-.142.11-.218.157-.29.18-.57.361-.844.563-.073.053-.147.102-.219.157-.171.132-.335.265-.5.406-.505.43-.95.91-1.374 1.406-.125.147-.257.285-.376.438-.113.146-.236.286-.343.437-.135.19-.251.395-.375.594-.04.064-.086.123-.125.187-.115.191-.208.396-.313.594a12.4 12.4 0 0 0-1.218 3.375c-.017.084-.048.165-.063.25-.108.6-.17 1.23-.187 1.844l-7.094 81.156c-.005.032-.028.061-.031.094l-.031.469c-.073.823-.066 1.65.03 2.5.005.019-.001.042 0 .062.029.238.052.48.094.719.097.547.245 1.077.407 1.594.016.053.045.103.062.156.098.298.194.589.312.875.026.06.037.128.063.188.11.255.248.504.375.75q.15.285.312.562a12.5 12.5 0 0 0 3.625 3.938c.19.132.396.252.594.374a12.3 12.3 0 0 0 4.094 1.626c.146.03.289.069.437.093.144.024.293.045.438.063.169.022.328.047.5.062.43.038.858.037 1.28.031.175-.003.357-.02.532-.03.063-.005.125.003.188 0 .02-.003.041.001.062 0 .396-.03.802-.09 1.188-.157l41.687-7.343c.166-.024.334-.064.5-.094.245-.043.48-.1.72-.156.03-.008.061-.024.093-.031.377-.093.764-.189 1.125-.313.052-.018.104-.043.156-.062.35-.125.7-.252 1.031-.406.035-.015.06-.047.094-.062a12.3 12.3 0 0 0 3.031-2.032c.092-.084.192-.163.282-.25.208-.2.4-.41.593-.625q.112-.124.22-.25c.453-.531.86-1.087 1.218-1.687.052-.086.107-.163.156-.25.061-.108.099-.234.157-.344.318-.603.596-1.228.812-1.875.09-.269.179-.536.25-.812.008-.032.023-.063.031-.094a12.4 12.4 0 0 0 .344-3.937c-.02-.258-.059-.523-.094-.782q.002-.014 0-.031c-.022-.156-.035-.313-.063-.469-.043-.244-.1-.48-.156-.719-.005-.021-.026-.04-.031-.062a12.5 12.5 0 0 0-.813-2.344l-34.812-74.687a12.6 12.6 0 0 0-2.219-3.406c-.165-.183-.326-.36-.5-.532-.126-.124-.243-.256-.375-.375-.068-.06-.15-.097-.219-.156a12.5 12.5 0 0 0-3.406-2.125 12 12 0 0 0-.5-.187c-.22-.08-.432-.151-.656-.219q-.233-.066-.469-.125c-.031-.009-.062-.023-.094-.031a13 13 0 0 0-1.093-.219c-.282-.044-.56-.068-.844-.094-.116-.01-.229-.024-.344-.03a13 13 0 0 0-1.219-.032zm22.099 135.298c-87.023 15.344-145.13 98.33-129.785 185.353s98.33 145.13 185.353 129.785 145.13-98.33 129.785-185.353-98.33-145.13-185.353-129.785m8.683 49.24c59.828-10.549 116.88 29.4 127.43 89.228s-29.4 116.88-89.228 127.43-116.88-29.4-127.43-89.228 29.4-116.88 89.228-127.43" style="fill:#000;fill-opacity:1;stroke:none" transform="translate(0 -52.362)"/></svg>