<svg xmlns="http://www.w3.org/2000/svg" width="1000" height="1000"><path d="M308.59 377.964c-.273.172-.531.372-.792.566q-.101.075-.2.152c-.076.058-.139.134-.213.195-.248.2-.504.387-.734.604l-.092.09q-.402.386-.764.801l-.066.074c-.515.605-.98 1.26-1.367 1.944-.045.078-.069.166-.112.245-.16.3-.313.598-.449.909-.036.082-.077.162-.111.245-.083.2-.158.397-.23.601a12 12 0 0 0-.488 1.906c-.035.19-.08.375-.106.566-.025.184-.062.367-.079.551-.021.232-.02.468-.028.702-.003.075-.013.15-.014.225-.004.222.017.446.026.67.043 1.206.246 2.388.632 3.532.027.082.041.167.07.248.208.573.47 1.15.76 1.69l34.435 73.83c.013.03.007.068.02.098l.207.421c.35.75.769 1.462 1.277 2.15.012.016.02.037.031.054.144.192.285.39.441.575.357.426.75.811 1.149 1.177.04.038.09.067.132.104.234.21.462.413.708.602.052.04.096.092.148.131.224.166.468.312.7.462q.27.173.552.331a12.5 12.5 0 0 0 5.108 1.597c.23.02.469.021.701.028a12.3 12.3 0 0 0 4.358-.64c.142-.047.285-.084.426-.137q.206-.078.41-.164c.158-.066.308-.123.464-.196.392-.183.762-.398 1.125-.614.15-.09.299-.196.445-.293.052-.034.11-.059.162-.093l.054-.031c.328-.225.65-.479.95-.73l32.431-27.203c.133-.103.258-.223.386-.331.19-.16.366-.327.545-.495.023-.023.042-.051.065-.074.28-.268.568-.545.818-.833.037-.042.068-.09.104-.132.24-.283.48-.569.69-.868.022-.03.029-.07.05-.1a12.3 12.3 0 0 0 1.61-3.275c.038-.119.084-.238.118-.358a12 12 0 0 0 .266-1.164 12.4 12.4 0 0 0 .212-2.07c.002-.1.011-.195.01-.295 0-.124-.031-.252-.036-.376a12.5 12.5 0 0 0-.234-2.03 12 12 0 0 0-.19-.829c-.009-.03-.01-.065-.02-.096a12.4 12.4 0 0 0-1.67-3.582c-.146-.213-.312-.423-.472-.63l-.016-.027c-.096-.124-.187-.253-.288-.375-.16-.19-.327-.366-.495-.544-.015-.016-.043-.022-.058-.038a12.5 12.5 0 0 0-1.876-1.624l-67.492-47.275a12.6 12.6 0 0 0-3.625-1.84 12 12 0 0 0-.698-.21c-.172-.045-.34-.1-.513-.138-.088-.019-.178-.009-.267-.026a12.5 12.5 0 0 0-4.013-.137q-.264.038-.526.088c-.232.04-.45.085-.678.138q-.235.059-.469.127c-.03.009-.065.01-.096.02q-.532.153-1.057.357c-.266.102-.518.22-.777.34-.106.05-.21.094-.314.145-.36.18-.727.367-1.07.583zM205.011 554.996c-.099.307-.168.626-.243.942q-.03.123-.056.246c-.02.093-.02.192-.038.286-.06.313-.137.62-.174.934l-.013.128q-.06.553-.07 1.105l-.003.1c-.006.794.06 1.594.203 2.367.016.089.054.172.072.26.069.332.144.66.24.985.025.086.045.173.072.259.065.206.134.406.21.608.232.623.53 1.205.852 1.773.095.168.18.34.282.502.1.158.189.32.294.473.133.192.285.371.43.556.046.06.086.122.133.181.14.173.301.331.451.497a12.4 12.4 0 0 0 2.755 2.3c.073.044.139.1.213.144.527.306 1.098.58 1.669.806l73.836 34.423c.028.015.048.047.077.062l.43.19c.748.35 1.528.625 2.36.825.02.005.039.017.058.022.234.055.469.115.708.157.547.097 1.096.14 1.636.164.056.002.113-.007.169-.005.313.01.619.019.929.006.065-.003.132.009.197.005.278-.017.56-.061.833-.096q.32-.043.636-.101a12.5 12.5 0 0 0 4.94-2.06c.19-.133.372-.286.555-.43a12.3 12.3 0 0 0 2.927-3.29c.078-.129.164-.249.238-.38.07-.127.141-.26.208-.39.079-.151.157-.292.23-.448.183-.392.328-.794.467-1.193.057-.165.103-.343.153-.51.018-.06.046-.116.064-.177.005-.02.016-.038.021-.058.108-.383.19-.784.26-1.17l7.357-41.685c.035-.164.054-.336.083-.502.043-.244.07-.485.099-.729.003-.032 0-.066.003-.098.042-.386.084-.783.09-1.164.002-.056-.004-.113-.004-.168.002-.371.002-.744-.03-1.108-.002-.038-.022-.072-.026-.11a12.3 12.3 0 0 0-.872-3.543c-.047-.115-.088-.237-.139-.35a12 12 0 0 0-.384-.772 12.4 12.4 0 0 0-1.329-2.014c-.063-.077-.116-.155-.181-.231-.08-.095-.186-.173-.27-.265-.458-.506-.95-.981-1.484-1.405a12 12 0 0 0-.678-.512c-.026-.019-.05-.044-.077-.062a12.4 12.4 0 0 0-3.582-1.67c-.249-.07-.511-.123-.767-.179l-.03-.01c-.153-.033-.305-.074-.46-.102-.245-.043-.486-.07-.73-.099-.022-.003-.047.01-.07.008a12.5 12.5 0 0 0-2.48-.038l-82.09 7.168a12.6 12.6 0 0 0-3.959.92c-.228.092-.45.184-.67.288-.16.077-.324.141-.48.225-.08.042-.143.108-.223.152a12.5 12.5 0 0 0-3.161 2.474c-.12.132-.233.267-.348.405-.15.18-.289.354-.43.542-.095.129-.186.265-.277.398-.019.027-.044.05-.062.077q-.309.46-.58.953c-.138.25-.255.502-.376.761-.05.105-.101.206-.147.312-.16.37-.322.749-.446 1.135zm590.572 3.416c-.012-.322-.057-.646-.094-.97l-.031-.25c-.013-.093-.047-.186-.063-.28-.05-.315-.083-.63-.156-.938l-.03-.125q-.134-.542-.313-1.062l-.031-.094a12.5 12.5 0 0 0-1-2.156c-.046-.078-.11-.143-.156-.22-.18-.288-.362-.57-.563-.843-.054-.072-.102-.147-.156-.219a12 12 0 0 0-.406-.5c-.43-.505-.91-.95-1.407-1.375-.147-.124-.284-.256-.437-.375-.147-.113-.287-.236-.438-.343-.19-.135-.395-.251-.594-.375-.064-.04-.122-.086-.187-.125-.19-.115-.396-.208-.594-.313a12.4 12.4 0 0 0-3.375-1.218c-.084-.017-.165-.048-.25-.063-.6-.107-1.23-.17-1.844-.187l-81.156-7.094c-.032-.004-.061-.028-.094-.031l-.468-.031a12.4 12.4 0 0 0-2.5.03c-.02.003-.042-.001-.063 0-.238.029-.48.052-.718.094-.548.097-1.078.245-1.594.407-.054.016-.103.045-.157.062a13 13 0 0 0-.875.312c-.06.025-.127.037-.187.063-.256.11-.504.249-.75.375q-.284.15-.563.312a12.5 12.5 0 0 0-3.937 3.625c-.133.19-.253.396-.375.594a12.3 12.3 0 0 0-1.625 4.094c-.03.147-.07.289-.094.437-.023.144-.044.293-.062.438-.022.17-.048.328-.063.5-.037.43-.037.858-.031 1.281.003.174.02.357.031.531.004.063-.004.125 0 .188v.062c.03.397.09.802.156 1.188l7.344 41.688c.023.165.064.334.093.5.043.244.1.48.156.718.007.032.024.063.031.094.093.377.189.765.313 1.125.018.053.043.104.062.156.125.35.253.7.406 1.032.017.034.047.06.063.094a12.3 12.3 0 0 0 2.03 3.03c.084.093.165.193.25.282.202.208.411.4.626.594q.123.111.25.219c.531.454 1.088.86 1.687 1.218.086.052.163.107.25.157.108.06.234.098.344.156a12.5 12.5 0 0 0 1.875.812c.27.09.536.179.813.25.031.007.062.024.093.031a12.4 12.4 0 0 0 3.938.344c.257-.019.522-.058.781-.094.01-.002.02.002.031 0 .156-.022.313-.035.469-.063.244-.043.48-.1.719-.156.022-.005.04-.026.062-.031a12.5 12.5 0 0 0 2.344-.813l74.687-34.812a12.6 12.6 0 0 0 3.407-2.22c.183-.164.36-.325.53-.499.125-.127.257-.243.376-.375.06-.068.097-.15.156-.219a12.5 12.5 0 0 0 2.125-3.406c.068-.165.127-.331.187-.5.08-.22.151-.432.22-.656q.065-.233.124-.47c.008-.03.023-.062.031-.093q.133-.537.219-1.094c.045-.28.068-.559.094-.843.01-.116.024-.229.03-.344.025-.402.047-.813.032-1.219zM694.058 380.194c-.216-.24-.458-.459-.694-.682l-.185-.172c-.07-.064-.156-.112-.228-.175-.241-.209-.469-.43-.723-.618l-.104-.075q-.45-.329-.922-.613l-.084-.052a12.5 12.5 0 0 0-2.152-1.01c-.085-.03-.175-.038-.26-.067a12 12 0 0 0-.974-.284c-.087-.021-.172-.048-.26-.067a12 12 0 0 0-.632-.122 12 12 0 0 0-1.962-.15c-.192 0-.383-.013-.576-.006-.185.007-.371.003-.556.018-.232.02-.464.062-.696.095-.075.01-.149.013-.224.024-.22.035-.437.095-.655.143-1.18.252-2.31.657-3.37 1.235-.075.042-.156.07-.23.113-.53.303-1.052.661-1.534 1.042l-66.729 46.732c-.028.017-.065.018-.092.036l-.379.278a12.4 12.4 0 0 0-1.895 1.63c-.013.016-.033.027-.048.041-.164.175-.334.348-.49.534-.357.426-.668.88-.96 1.335-.03.047-.05.101-.08.149-.165.266-.326.526-.47.801-.029.058-.073.11-.102.169-.125.249-.227.515-.334.77q-.123.296-.23.6a12.5 12.5 0 0 0-.686 5.308c.02.231.06.466.094.696.211 1.46.664 2.863 1.387 4.18.071.132.132.266.21.396q.112.189.233.375c.092.144.174.282.273.423.248.355.524.682.8 1.002.114.131.245.26.365.387.043.045.078.098.12.143.015.016.026.034.041.048.278.285.584.557.883.81l32.422 27.214c.124.112.264.215.393.323.19.16.385.304.581.45.026.02.058.033.084.052.313.23.636.465.963.661.048.029.1.052.148.08.32.187.643.373.974.529.034.015.074.016.108.032a12.3 12.3 0 0 0 3.504 1.016c.124.017.25.042.373.055.287.03.572.043.86.053a12.4 12.4 0 0 0 2.408-.144c.1-.016.194-.023.292-.041.122-.023.243-.075.364-.102a12.5 12.5 0 0 0 1.959-.582c.263-.105.525-.208.783-.331.029-.015.063-.022.091-.037a12.4 12.4 0 0 0 3.238-2.267c.184-.18.362-.381.538-.574.007-.008.018-.012.023-.02.106-.117.217-.229.32-.35.159-.19.303-.385.45-.582.014-.017.014-.046.027-.064.5-.68.928-1.39 1.273-2.129l34.837-74.676a12.6 12.6 0 0 0 1.183-3.889c.035-.244.066-.48.086-.725.014-.176.04-.35.046-.528.003-.09-.022-.177-.02-.268a12.5 12.5 0 0 0-.563-3.975c-.054-.17-.115-.335-.177-.504-.08-.22-.162-.427-.255-.643q-.098-.22-.205-.44c-.014-.029-.022-.062-.037-.091-.162-.33-.341-.659-.535-.979-.147-.244-.307-.472-.47-.706-.068-.095-.129-.19-.198-.284a13 13 0 0 0-.76-.953zM501.73 308.93c-.32-.045-.646-.057-.97-.076l-.252-.013c-.095-.004-.192.014-.288.013-.319-.005-.635-.028-.95-.01l-.129.01q-.555.037-1.1.123l-.098.014c-.783.132-1.56.335-2.297.61-.084.032-.16.083-.243.116-.315.126-.624.257-.928.408-.081.04-.163.074-.243.116-.192.1-.376.203-.563.313a12.4 12.4 0 0 0-1.598 1.146c-.148.123-.302.236-.445.366-.138.125-.283.24-.415.371-.165.165-.315.345-.472.52-.051.056-.106.106-.156.163-.146.168-.273.353-.41.53a12.4 12.4 0 0 0-1.787 3.112c-.031.08-.075.154-.105.236-.21.571-.38 1.181-.505 1.783l-21.078 78.691c-.01.031-.038.056-.047.087l-.112.456a12.4 12.4 0 0 0-.403 2.468c-.001.02-.01.041-.011.061-.014.24-.033.482-.033.725 0 .556.054 1.103.123 1.64.007.055.027.109.035.164.044.311.088.614.155.916.015.064.014.133.03.196.064.271.157.54.239.804q.097.307.21.608a12.5 12.5 0 0 0 2.886 4.507c.164.164.346.318.52.472 1.1.983 2.348 1.766 3.749 2.312.139.055.272.118.414.168q.208.072.42.137c.163.051.315.104.482.149.418.112.839.185 1.256.253.172.027.355.041.529.061.062.007.122.026.185.033.02.003.04.01.061.011.396.04.805.051 1.197.052l42.33.007c.167.006.34-.005.508-.005.248 0 .49-.015.735-.029.032 0 .065-.012.097-.014a13 13 0 0 0 1.163-.112c.055-.01.11-.025.164-.034a12 12 0 0 0 1.086-.221c.037-.01.067-.036.104-.045a12.3 12.3 0 0 0 3.338-1.474c.105-.067.217-.128.32-.198.24-.161.466-.335.693-.512a12.4 12.4 0 0 0 1.752-1.658c.067-.076.134-.142.198-.22.079-.095.137-.213.213-.31.419-.54.801-1.107 1.126-1.706.135-.25.269-.498.387-.757.013-.03.034-.058.047-.087a12.4 12.4 0 0 0 1.022-3.818c.026-.257.033-.525.044-.786 0-.01.006-.02.005-.03.006-.157.02-.315.02-.473 0-.248-.015-.49-.03-.735 0-.022-.018-.044-.02-.067a12.5 12.5 0 0 0-.393-2.45l-21.314-79.597a12.6 12.6 0 0 0-1.594-3.74 12 12 0 0 0-.4-.61c-.103-.144-.195-.294-.304-.434-.056-.072-.13-.122-.188-.192a12.5 12.5 0 0 0-2.986-2.684 12 12 0 0 0-.46-.272 12 12 0 0 0-.608-.33c-.143-.07-.293-.137-.44-.204-.029-.014-.057-.034-.087-.047a13 13 0 0 0-1.039-.405c-.27-.093-.539-.164-.815-.239-.112-.03-.22-.063-.333-.09a13 13 0 0 0-1.195-.242z" style="fill:#000;fill-opacity:1;stroke:none" transform="translate(0 -52.362)"/><path d="M262.5 618.531c-6.831.084-12.344 5.65-12.344 12.5 0 6.851 5.513 12.416 12.344 12.5h475c6.831-.084 12.344-5.649 12.344-12.5 0-6.85-5.513-12.416-12.344-12.5zm25 50c-6.831.084-12.344 5.65-12.344 12.5 0 6.851 5.513 12.416 12.344 12.5h425c6.831-.084 12.344-5.649 12.344-12.5 0-6.85-5.513-12.416-12.344-12.5zm75 50c-6.831.084-12.344 5.65-12.344 12.5 0 6.851 5.513 12.416 12.344 12.5h275c6.831-.084 12.344-5.649 12.344-12.5 0-6.85-5.513-12.416-12.344-12.5zM500 393.656c-88.366 0-160 71.635-160 160 0 13.795 1.936 27.105 5.219 39.875h52.375c-4.826-12.38-7.594-25.788-7.594-39.875 0-60.751 49.249-110 110-110s110 49.249 110 110c0 14.087-2.737 27.496-7.562 39.875h52.343c3.284-12.772 5.219-26.078 5.219-39.875 0-88.365-71.634-160-160-160" style="fill:#000;fill-opacity:1;stroke:none"/></svg>