<svg xmlns="http://www.w3.org/2000/svg" width="1000" height="1000"><path d="m278.595 252.364-77.5 32.188c1.913 15.056 4.824 28.935 9.063 41.875l179.061-74.063zm241.249 0L231.095 372.052c9.077 15.195 19.44 28.719 30.312 41.25l388.749-160.938zm261.249 0L298.595 452.052c.103.1.21.21.312.31 13.707 12.762 26.897 25.06 39.375 37.5L735.78 325.175c30.085-15.154 63.125-26.53 63.125-72.813h-17.813zM687.656 399.24 374.532 528.926c11.53 13.598 21.84 27.345 30.625 41.562l292.811-121.25c-6.363-19.745-9.597-36.341-10.312-50m24.062 98.124L426.72 615.488c5.461 15.827 9.212 32.403 10.313 50L719.843 548.3c-.886-15.279-3.73-32.327-8.125-50.938m2.5 107.5L432.97 721.426c-3.897 19.54-10.814 40.176-20.312 62.5l259.999-107.813c19.628-22.981 34.064-45.142 41.562-71.25M585.156 766.425l-207.5 85.937h111.25l33.438-13.75c7.085-11.414 24.88-33.377 62.812-72.187" style="fill:#000;fill-opacity:1;stroke:none" transform="translate(0 -52.362)"/></svg>